<svg width="44" height="43" viewBox="0 0 44 43" fill="none" xmlns="http://www.w3.org/2000/svg">
<path d="M30.8774 21.7889C30.8774 18.4192 33.6091 15.6875 36.9788 15.6875C40.3485 15.6875 43.0801 18.4192 43.0801 21.7889C43.0801 25.1585 40.3485 27.8902 36.9788 27.8902C33.6091 27.8902 30.8774 25.1585 30.8774 21.7889Z" fill="#D4D7DE"/>
<path d="M0.0795898 21.7889C0.0795898 18.4192 2.81126 15.6875 6.18094 15.6875C9.55062 15.6875 12.2823 18.4192 12.2823 21.7889C12.2823 25.1585 9.55062 27.8902 6.18094 27.8902C2.81126 27.8902 0.0795898 25.1585 0.0795898 21.7889Z" fill="#D4D7DE"/>
<path d="M15.478 6.68045C15.478 3.31077 18.2097 0.579102 21.5794 0.579102C24.9491 0.579102 27.6807 3.31077 27.6807 6.68045C27.6807 10.0501 24.9491 12.7818 21.5794 12.7818C18.2097 12.7818 15.478 10.0501 15.478 6.68045Z" fill="#D4D7DE"/>
<path d="M15.478 36.8982C15.478 33.5285 18.2097 30.7969 21.5794 30.7969C24.9491 30.7969 27.6807 33.5285 27.6807 36.8982C27.6807 40.2679 24.9491 42.9996 21.5794 42.9996C18.2097 42.9996 15.478 40.2679 15.478 36.8982Z" fill="#D4D7DE"/>
<path d="M0.0795898 6.68066C0.0795898 3.31055 2.81104 0.579102 6.18115 0.579102C9.55029 0.579102 12.2827 3.31055 12.2827 6.68066C12.2827 7.74512 12.0103 8.74707 11.5308 9.61816L18.4575 16.5449C19.3706 16 20.439 15.6865 21.5796 15.6865C22.0972 15.6865 22.6001 15.751 23.0806 15.8721C23.6587 16.0186 24.2036 16.2471 24.7017 16.5449L31.6294 9.61719C31.1499 8.74609 30.8774 7.74512 30.8774 6.68066C30.8774 3.31055 33.6089 0.579102 36.979 0.579102C40.3481 0.579102 43.0806 3.31055 43.0806 6.68066C43.0806 10.0498 40.3481 12.7822 36.979 12.7822C35.7622 12.7822 34.6284 12.4268 33.6763 11.8125L26.8228 18.666C27.3677 19.5791 27.6812 20.6475 27.6812 21.7881C27.6812 22.9287 27.3677 23.9971 26.8228 24.9102L33.6772 31.7646C34.6284 31.1514 35.7622 30.7959 36.979 30.7959C40.3481 30.7959 43.0806 33.5273 43.0806 36.8975C43.0806 40.2666 40.3481 42.999 36.979 42.999C33.6089 42.999 30.8774 40.2666 30.8774 36.8975C30.8774 35.832 31.1509 34.8311 31.6304 33.96L24.7017 27.0312C23.7886 27.5762 22.7202 27.8896 21.5796 27.8896C20.439 27.8896 19.3706 27.5762 18.4575 27.0312L11.5298 33.959C12.0093 34.8311 12.2827 35.832 12.2827 36.8975C12.2827 40.2666 9.55029 42.999 6.18115 42.999C2.81104 42.999 0.0795898 40.2666 0.0795898 36.8975C0.0795898 33.5273 2.81104 30.7959 6.18115 30.7959C7.39697 30.7959 8.53076 31.1514 9.48193 31.7646L16.3364 24.9102C15.7915 23.9971 15.478 22.9287 15.478 21.7881C15.478 20.6475 15.7915 19.5791 16.3364 18.666L9.48291 11.8125C8.53076 12.4258 7.39795 12.7822 6.18115 12.7822C2.81104 12.7822 0.0795898 10.0498 0.0795898 6.68066Z" fill="#E84E46"/>
</svg>
