<?xml version="1.0" encoding="UTF-8"?>
<svg version="1.1" viewBox="0 0 2048 350" width="1280" height="1280" xmlns="http://www.w3.org/2000/svg">
<path transform="translate(42,3)" d="m0 0h14l12 3 11 6 10 10 5 8 3 9v23l-1 11 3 6 48 48 9 3 14-3 14 1 9 2 7-3 41-41h2v-2h2v-2h2l2-4 2-3v-10l-2-10 1-13 4-12 7-11 9-8 12-6 9-2h13l12 3 11 6 9 9 6 10 4 12v18l-4 11-6 10-7 7-11 7-9 3-6 1h-10l-11-2-8 1-6 4-7 8-39 39-2 4v7l2 7v13l-4 15 4 6 37 37 7 8 7 6 9 1 9-2h14l13 4 9 6 7 6 6 9 4 12 1 6v19l-7 14-9 9-16 8-10 2h-11l-12-3-10-5-8-7-7-11-4-11-1-11 1-10 1-4v-8l-7-9-40-40-9-6h-8l-8 2h-12l-9-2h-7l-7 4-48 48-2 5 1 8 1 4v18l-4 11-6 10-8 8-12 6-13 3h-10l-12-3-10-5-10-9-7-12-2-6-1-7v-10l2-11 6-12 8-9 11-7 9-3 6-1h12l9 2h6l8-5 46-46 2-3v-10l-1-4v-20l1-4v-9l-5-8-9-9-8-7-29-29-2-1h-14l-5 1h-12l-11-3-10-5-10-9-7-11-3-9-1-6v-11l3-12 7-13 8-8 10-6z" fill="#EE4143"/>
<path transform="translate(1490,32)" d="m0 0 8 1 7 6 2 4v263l-4 6-5 3h-12l-7-4-10-11-10-13-14-18-33-42-14-18-33-42-14-18-33-42-14-18-2-1v207l-1 11-4 6-4 3-4 1h-8l-6-4-4-5-1-3v-258l4-8 6-4 3-1h11l8 4 10 11 12 16 13 16 10 13 121 154 7 9 1-212 4-7 6-4z" fill="#EE4143"/>
<path transform="translate(1043,31)" d="m0 0h33l18 3 24 8 19 10 14 10 13 12 10 11 9 13 8 14 6 15 5 18 3 21v20l-3 20-6 21-10 21-8 12-9 11-7 8-8 7-13 10-16 9-19 8-20 5-17 2h-19l-17-2-19-5-13-5-21-11-13-10-12-11-9-10-11-16-8-15-7-19-4-19-2-23 2-21 5-21 6-16 9-17 10-14 12-14 11-9 12-9 16-9 15-6 19-5zm3 29-16 3-19 7-16 9-10 8-11 10-8 10-8 13-6 12-5 15-3 19v20l3 17 6 18 9 17 10 13 14 14 13 9 16 8 14 5 14 3 11 1h16l21-4 16-6 14-7 12-9 10-9 9-10 9-14 8-17 5-18 1-7v-30l-4-18-6-16-9-16-9-11-13-13-14-10-16-8-15-5-16-3z" fill="#EE4143"/>
<path transform="translate(1859,34)" d="m0 0h168l10 1 6 4 3 6v9l-5 7-8 3h-159v95h145l6 4 3 5v10l-4 6-5 3-5 1h-140v97h163l6 3 5 6v11l-7 8-3 1h-185l-6-4-4-5-1-2-1-14v-210l1-34 5-7 5-3z" fill="#EE4143"/>
<path transform="translate(680,34)" d="m0 0h87l19 1 19 3 15 5 16 8 10 8 11 11 8 13 5 13 3 15 1 15-3 21-5 15-8 14-12 13-11 8-10 6-19 7-18 4-7 1-85 1-1 89-5 8-7 3h-8l-6-3-4-5-2-5v-256l3-6 7-6zm16 30-1 1v121h83l15-3 14-5 14-9 8-8 7-11 4-13 1-18-3-15-7-14-9-10-13-8-18-6-13-2z" fill="#EE4143"/>
<path transform="translate(488,30)" d="m0 0 26 1 22 4 17 6 16 8 15 10 4 6 1 9-4 8-7 4h-11l-19-12-15-7-18-5-14-2h-17l-16 3-12 5-9 6-8 9-5 12-1 5v10l3 12 5 8 7 7 17 9 21 7 41 10 21 7 16 8 11 7 9 8 9 13 5 14 2 18-1 14-4 15-8 15-11 12-10 8-16 8-15 5-19 3h-27l-22-3-21-6-18-8-16-9-16-12-4-6-1-8 3-7 5-5 3-1h10l9 6 12 9 16 9 15 6 18 4 8 1h27l17-4 12-6 7-6h2v-2h2l7-14 2-9v-13l-4-13-7-9-11-7-16-7-20-6-31-7-27-9-16-8-9-6-10-9-7-10-5-12-3-15v-15l3-16 5-11 7-11 9-10 13-9 14-7 18-5z" fill="#EE4143"/>
<path transform="translate(1667,30)" d="m0 0 25 1 18 3 17 5 19 9 15 10 5 6 1 2v10l-4 6-6 4h-11l-20-12-12-6-20-6-15-2h-16l-17 3-12 5-11 8-7 10-3 7-1 5v15l3 10 6 9 9 7 16 8 19 6 37 9 19 6 17 7 14 9 10 9 7 9 5 10 3 10 1 8v17l-2 12-5 13-7 12-9 10-12 9-17 8-13 4-19 3h-27l-21-3-21-6-19-8-17-10-13-10-5-6-1-2v-9l4-7 6-4h11l11 8 13 9 17 9 18 6 19 3h26l14-3 12-5 10-7 8-9 4-10 1-3v-20l-4-11-9-10-14-8-27-9-38-9-24-8-16-8-11-8-6-5-8-11-5-11-3-13v-24l4-15 8-15 11-12 10-8 15-8 16-5 11-2z" fill="#EE4143"/>
<path transform="translate(168,2)" d="m0 0h11l10 2 9 4 11 8 7 9 4 8 3 11v16l-4 13-7 11-10 9-12 6-10 2h-13l-12-3-9-5-10-9-7-10-4-12-1-13 3-15 5-10 9-10 8-6 12-5z" fill="#D6DAE1"/>
<path transform="translate(40,127)" d="m0 0h19l10 3 12 7 8 8 7 12 3 15v9l-3 13-5 9-9 10-8 6-13 5-5 1h-13l-12-3-11-6-11-11-5-9-4-13v-16l4-12 7-11 8-8 16-8z" fill="#D6DAE1"/>
<path transform="translate(289,127)" d="m0 0h19l12 4 9 6 7 6 6 10 4 11 1 14-2 13-8 16-8 8-10 6-15 4h-12l-12-3-10-5-11-10-7-12-3-12v-14l3-12 6-11 6-7 10-7 10-4z" fill="#D6DAE1"/>
<path transform="translate(1055,126)" d="m0 0h11l13 3 12 7 9 9 6 12 3 14-1 16-4 11-6 10-9 8-12 6-8 2h-19l-11-4-10-6-9-9-7-14-2-11v-11l3-12 5-10 9-10 11-7 9-3z" fill="#D6DAE1"/>
<path transform="translate(166,251)" d="m0 0h15l11 3 11 6 8 7 7 11 3 8 2 11-1 13-4 12-6 9-8 8-10 6-10 3-12 1-12-2-12-5-9-7-6-7-6-12-2-8v-16l4-13 7-11 7-7 10-6z" fill="#D6DAE1"/>
</svg>
